<?xml version="1.0" encoding="UTF-8"?> <svg xmlns="http://www.w3.org/2000/svg" xmlns:xlink="http://www.w3.org/1999/xlink" width="54.5" height="25.4"><defs><path id="a" d="M0 0h54.5v25.4H0z"></path></defs><clipPath id="b"><use xlink:href="#a" overflow="visible"></use></clipPath><path d="M4.1 6.8c1.8.6 4.1 1.6 7 3-1.6-.9-3.9-2.3-4-4.3C7 1.9 10.9 0 15.5 0h.3-1C9.7 0 5.5 2.9 4.1 6.8m20.8 1.8c-.3-1-.9-2-1.6-3.3 0 0 5.1 11-6.4 7.3-.1-.1 11 4.5 8-4" clip-path="url(#b)" fill="#b5173b"></path><path d="M25.5 17.5c-1.6 0-2.7 1.1-2.7 2.7 0 1.7 1.1 2.7 2.7 2.7s2.7-1.1 2.7-2.7-1-2.7-2.7-2.7m0 4.4c-1 0-1.3-.8-1.3-1.7 0-.8.3-1.7 1.3-1.7s1.3.8 1.3 1.7c0 .9-.3 1.7-1.3 1.7m5.7 1.1c1.4 0 2.3-.8 2.5-2.1h-1.4c-.1.6-.5 1.1-1.1 1.1-.9 0-1.2-.9-1.2-1.6 0-.8.3-1.7 1.2-1.7.6 0 1 .3 1.1.9h1.4c-.1-1.3-1.2-2-2.4-2-1.7 0-2.7 1.2-2.7 2.8-.1 1.5 1 2.6 2.6 2.6m4.4-1.9l.6-.5 1.4 2.3h1.7l-2.2-3.3 2-1.9h-1.7l-1.8 1.9v-4.3h-1.4V23h1.4v-1.9zm6.1-3.6c-1.6 0-2.7 1.2-2.7 2.7 0 1.6 1 2.7 2.7 2.7 1.2 0 2-.5 2.4-1.8h-1.3c-.1.3-.6.7-1.1.7-.8 0-1.2-.4-1.3-1.3h3.8c.2-1.5-.7-3-2.5-3m-1.2 2.2c0-.4.3-1.1 1.2-1.1.7 0 1 .4 1.1 1.1h-2.3zm7.9-2L47 21.9l-1.4-4.2H44l2.1 5.6c.2.4 0 .9-.5 1h-.8v1.2c.3 0 .6.1.9.1 1 0 1.5-.3 1.8-1.2l2.4-6.5h-1.5zm4.4 2c-.8-.2-1.6-.3-1.6-.8 0-.4.5-.5.8-.5.5 0 .9.2 1 .7h1.4c-.1-1.3-1.2-1.7-2.3-1.7-1.1 0-2.3.3-2.3 1.7 0 .9.8 1.2 1.7 1.4 1 .2 1.6.4 1.6.8 0 .5-.5.7-.9.7-.6 0-1.1-.3-1.1-.9h-1.4c.1 1.4 1.2 1.8 2.4 1.8s2.4-.4 2.4-1.8c0-.9-.8-1.2-1.7-1.4m-32.2.8c0 .5 0 1.2-.8 1.2-.7 0-.9-.3-1-1l-1.3.2c0 1.5 1.2 2.2 2.4 2.2 2.1 0 2.4-1.5 2.4-2.4v-5.4h-1.6v5.2zm24.5-3.8c-.2 0-.4-.1-.4-.3h-.4c0 .4.3.6.7.6.5 0 .7-.2.7-.5 0-.4-.4-.5-.5-.5-.4-.1-.5-.1-.5-.3 0-.1.1-.2.3-.2.2 0 .3.1.3.3h.4c0-.4-.3-.5-.7-.5-.3 0-.6.2-.6.5s.3.4.5.5c.3.1.5.1.5.3 0 0-.2.1-.3.1m8.6-.1v-1.4h-.4v1.7h1.2v-.3h-.8zm-3.4-.8l.7 1.1h.4v-1.7H51v1.1l-.7-1.1H50v1.7h.4v-1.1zm-1.4 1.1c.5 0 .8-.4.8-.9s-.3-.9-.8-.9-.8.4-.8.9c0 .6.3.9.8.9m0-1.4c.3 0 .5.3.5.6s-.1.6-.5.6c-.3 0-.5-.3-.5-.6s.2-.6.5-.6m-2.3 1.2c-.2 0-.4-.1-.4-.3h-.4c0 .4.3.6.7.6.5 0 .7-.2.7-.5 0-.4-.4-.5-.5-.5-.4-.1-.5-.1-.5-.3 0-.1.1-.2.3-.2.2 0 .3.1.3.3h.4c0-.4-.3-.5-.7-.5-.3 0-.6.2-.6.5s.3.4.5.5c.3.1.5.1.5.3 0 0-.2.1-.3.1m5.4-.2h.6l.1.4h.4l-.6-1.7h-.4l-.6 1.7h.4l.1-.4zm.3-.9l.2.6h-.4l.2-.6zm-4.4-.4h-.4v1.7h.4v-1.7zm-11 1.1h.4c.4 0 .6-.3.6-.5 0-.3-.2-.5-.6-.5h-.8V17h.4v-.7zm0-.8h.3c.2 0 .3 0 .3.3s-.2.2-.3.2h-.3v-.5zm5 .7h.7v-.3h-.7v-.4h.8v-.3h-1.2v1.7h.4v-.7zm2.3.4h-.9v-.4h.8v-.3h-.8v-.4h.9v-.3h-1.3v1.7h1.3v-.3zm-3.7.3c.5 0 .8-.4.8-.9s-.3-.9-.8-.9-.8.4-.8.9c0 .6.3.9.8.9m0-1.4c.3 0 .5.3.5.6s-.1.6-.5.6-.5-.4-.5-.6c0-.3.2-.6.5-.6m-2.1.7h.4c.2 0 .3.1.3.3 0 .1 0 .3.1.4h.4c-.1-.1-.1-.3-.1-.4 0-.2-.1-.4-.2-.4.2-.1.3-.2.3-.4 0-.3-.2-.5-.5-.5h-.9v1.7h.4v-.7zm0-.7h.4c.2 0 .3.1.3.2 0 .2-.1.2-.3.2h-.4v-.4zm.1 8.4h.5v1.4h.4v-1.4h.5v-.3h-1.4v.3zm-.8-.3l-.6 1.7h.4l.1-.4h.6l.1.4h.4l-.6-1.7h-.4zm0 1.1l.2-.6.2.6h-.4zm2.4.6h.4v-1.7h-.4v1.7zm3.6-.5l-.7-1.1h-.4v1.7h.3v-1.1l.7 1.1h.4v-1.7h-.4v1.1zm-12.9-.5c-.4-.1-.5-.1-.5-.3 0-.1.1-.2.3-.2.2 0 .3.1.3.3h.4c0-.4-.3-.5-.7-.5-.3 0-.6.2-.6.5s.3.4.5.5c.3.1.5.1.5.3 0 .2-.2.2-.3.2-.2 0-.4-.1-.4-.3h-.4c0 .4.3.6.7.6.5 0 .7-.2.7-.5 0-.5-.4-.6-.5-.6m-1.9-.7l-.6 1.7h.4l.1-.4h.6l.1.4h.4l-.6-1.7h-.4zm-.1 1.1l.2-.7.2.6h-.4zm3.5-.4c-.4-.1-.5-.1-.5-.3 0-.1.1-.2.3-.2.2 0 .3.1.3.3h.4c0-.4-.3-.5-.7-.5-.3 0-.6.2-.6.5s.3.4.5.5c.3.1.5.1.5.3 0 .2-.2.2-.3.2-.2 0-.4-.1-.4-.3h-.4c0 .4.3.6.7.6.5 0 .7-.2.7-.5.1-.5-.3-.6-.5-.6m1.5-.7c-.5 0-.8.4-.8.9s.3.9.8.9.8-.4.8-.9-.3-.9-.8-.9m0 1.4c-.3 0-.5-.3-.5-.6s.1-.6.5-.6c.3 0 .5.3.5.6 0 .4-.2.6-.5.6m7.7-1.4c-.5 0-.8.4-.8.9s.3.9.8.9.8-.4.8-.9c.1-.5-.3-.9-.8-.9m0 1.4c-.3 0-.5-.3-.5-.6s.1-.6.5-.6c.3 0 .5.3.5.6 0 .4-.1.6-.5.6m-4.9.3h.4v-1.7h-.4v1.7zm-1-.3c-.3 0-.5-.3-.5-.6s.1-.6.5-.6c.2 0 .3.1.4.3h.4c0-.4-.4-.6-.7-.6-.5 0-.8.4-.8.9s.3.9.8.9c.4 0 .7-.3.7-.7H36c0 .3-.2.4-.4.4M12.8 13.6s3.9 11.3 1.2 11.3c0 0 5 3.6-.4-10.1 0 0 2.2.7 2.9-1.3.2-.5.2-.7.2-.7v.1c-.1.7-.8 2-3.9.7m-6.2 4c-.3-.2-.5-.6-.7-.9-.1-.1-.2-.3-.2-.3.2 1.5 1 2.1 1 2.1-.3-.2-.1-.9-.1-.9m2.2 3.2c.3-.2.4-.5.1-.8 0 0 .2.3-.2.5-.1 0-.3.1-.3.1-.1 0-.2 0-.3.1-.4.1-.8.3-.7.5 0 .1.4.1.9 0 .1-.2.3-.3.5-.4m.5 1.3c-.4.1-.6.2-.6.3 0 .1.3.2.7.2-.1.2 0 .4 0 .4v.1c0-.1.1-.2.2-.4.2-.3.6-.6.9-.7 0 0-.6.1-1 .1h-.2m1.9-6c-1 2.8-3.5 2.3-4.2 1.8 1.7 1.3 3.1.6 3.8-.2.9-1.2.6-2.8.6-2.8 0 .5-.1.9-.2 1.2M18.8.9l.1-.1c.1-.2-.2-.5-.6-.7-.4-.2-.8-.1-.9.1v.1c.4.2.9.4 1.4.6m2.7 4.2c-2.7 6.1-10.2 8-10.2 8 .1.2.2.4.2.7 8.2-2.9 10-8.7 10-8.7m-13.1 13c1.6 0 2.8-1.5 2.8-3.3 0-.5-.1-1.1-.3-1.5.1 1.2-1.1 2.5-2.7 2.9-.9.2-1.8.1-2.5-.2.4 1.2 1.4 2.1 2.7 2.1m3.8-7.4c-20.4-9.9-9 .7-9 .7-.9-4.9 9-.7 9-.7m.1.7s-2.2 0-5.3.5c-2.6.5-4.7 1.3-1.5 2.4 0 .1-1.8-2.2 6.8-2.9m-6.6 3.9s1-2.3 4.9-2.2c.1.1-3.9-.9-4.9 2.2" clip-path="url(#b)" fill="#1d3056"></path></svg> 