<svg xmlns="http://www.w3.org/2000/svg" width="298" height="394.8"><path d="M170 167.6c-2.8-2.4-6-4-9.6-5.2-3.6-.8-7.6-1.2-12.4-1.2h-18.4c-3.2 0-5.2.8-6.8 2-1.2 1.2-2 3.6-2 6.8v51.6c0 2.4 0 4 .8 5.6.4 1.6 1.2 2.4 2.4 3.2s3.2 1.2 6 1.2h18.4c3.2 0 6-.4 8.8-.8 2.4-.4 4.8-1.2 7.2-2 2.4-1.2 4.4-2.4 6-4 2.4-2.4 4.4-4.8 6-7.6s2.8-6 3.6-9.6c.8-3.6 1.2-7.2 1.2-11.6 0-12.4-3.6-22-11.2-28.4zm-10.4 49.6c-1.2.8-2.4 1.6-3.6 2-1.6.4-2.8.8-4 .8h-16.4v-48h9.6c4.4 0 8 .4 11.2 1.6 3.2.8 5.6 3.2 7.6 6.8s3.2 8.8 3.2 15.6c-.4 10.4-2.8 17.2-7.6 21.2z"/><path d="M297.2 78.8l-.4-.4V78l-76-76-.4-.4s-.4 0-.4-.4c0 0-.4 0-.4-.4-1.2-.8-2.4-.8-4-.8H27.2C20 0 13.2 2.8 8.4 7.6L8 8c-4.8 4.8-8 12-8 19.2v340.4c0 7.6 3.2 14.4 8 19.2 4.8 4.8 12 8 19.2 8h243.6c7.6 0 14.4-3.2 19.2-8s8-12 8-19.2V82.8c0-1.6-.4-2.8-.8-4zm-74-50L268.4 74h-33.2c-3.2 0-6.4-1.2-8.4-3.6-2-2-3.6-5.2-3.6-8.4V28.8zm57.6 338.8c0 2.8-1.2 5.2-3.2 7.2s-4.4 3.2-7.2 3.2H27.2c-2.8 0-5.2-1.2-7.2-2.8-2-2-2.8-4.4-2.8-7.2V26.8c0-2.8 1.2-5.2 3.2-7.2l.4-.4c2-1.6 4.4-2.8 6.8-2.8h179.2v45.2c0 8 3.2 15.2 8.8 20.8 5.2 5.2 12.8 8.4 20.8 8.4h44.4v276.8z"/><path d="M102.4 166.8c-2-2-4.4-3.2-7.6-4-2.8-.8-7.2-1.2-12.4-1.2H64c-3.2 0-5.6.8-6.8 2-1.6 1.2-2 3.6-2 6.8v54.4c0 2.8.8 4.8 2 6.4 1.2 1.6 3.2 2 5.2 2s3.6-.8 5.2-2.4c1.2-1.6 2-3.6 2-6.4v-20h13.2c8.8 0 15.2-2 19.6-5.6 4.4-3.6 6.8-9.2 6.8-16.4 0-3.2-.4-6.4-1.6-9.2-1.6-2.4-3.2-4.8-5.2-6.4zm-9.6 22.4c-1.2 1.6-2.8 2.8-5.2 3.6s-5.2 1.2-8.4 1.2h-9.6v-21.6h9.6c6.4 0 10.4 1.2 12.8 3.2 2 2 2.8 4.4 2.8 7.6-.4 2.4-.8 4.4-2 6zM202.4 160.8c-2.4.4-4 .8-5.2 1.6-1.2.4-2.4 1.6-2.8 2.8-.8 1.2-.8 2.8-.8 5.2v54c0 2.8.8 5.2 2 6.4 1.2 1.6 3.2 2 5.2 2s3.6-.8 5.2-2c1.2-1.6 2-3.6 2-6.4v-23.2h23.6c2 0 3.6-.4 4.8-1.6 1.2-.8 1.6-2.4 1.6-4s-.4-2.8-1.6-4c-1.2-.8-2.8-1.6-4.8-1.6H208v-18h28c2.4 0 4-.4 5.2-1.6 1.2-1.2 1.6-2.4 1.6-4s-.4-2.8-1.6-4-2.8-1.6-5.2-1.6h-33.6z"/></svg>